<?xml version="1.0" encoding="utf-8"?>
<!-- Generator: Adobe Illustrator 16.0.0, SVG Export Plug-In . SVG Version: 6.00 Build 0)  -->
<!DOCTYPE svg PUBLIC "-//W3C//DTD SVG 1.1//EN" "http://www.w3.org/Graphics/SVG/1.1/DTD/svg11.dtd">
<svg version="1.1" id="图层_1" xmlns="http://www.w3.org/2000/svg" xmlns:xlink="http://www.w3.org/1999/xlink" x="0px" y="0px"
	 width="1360px" height="680px" viewBox="0 0 1360 680" enable-background="new 0 0 1360 680" xml:space="preserve">
<image overflow="visible" width="1360" height="680" xlink:href="../../../威强电.png" >
</image>
<path fill="#FFFFFF" d="M726.532,233.962l2.712,2.39l0.677,9.216l4.746-0.682v24.917l-6.44,3.072v13.313v5.803l-3.051,3.754
	l-57.624,29.696l-35.931-8.533l-3.39-4.437l-0.338-5.461l-13.559-3.754v-58.367l35.252-15.019l18.304,4.096v-2.388l12.203-5.803
	l6.102,1.366l2.712-1.366L726.532,233.962z"/>
<path fill="#FFFFFF" d="M573.515,203.025l2.606,2.213l0.651,8.538l4.562-0.529l0.115,24.703l-4.334,1.742L577,250.407l0.333,6.26
	l-4,5l-56.512,26.104l-34.537-7.906l-4.386-4.052l-0.325-5.061l-11.907-3.536v-54.073l33.885-13.914l17.595,3.794v-2.213
	l11.729-5.376l5.865,1.265l2.607-1.265L573.515,203.025z"/>
<path fill="#FFFFFF" d="M904.239,271.161l2.81,2.502l0.701,9.649l4.917-0.714v26.087l-6.673,3.217v13.938v6.076l-3.16,3.93
	l-52.155,34.922l-44.424-10.995l-3.857-6.414l-0.351-5.719L785.5,344.5l2.5-61.902l33-17.098l22.486,5.661v-2.5l11.014-6.076
	l7.949,1.43l2.809-1.43L904.239,271.161z"/>
</svg>
